<svg width="553" height="474" viewBox="0 0 553 474" fill="none" xmlns="http://www.w3.org/2000/svg">
<mask id="mask0_859_909" style="mask-type:alpha" maskUnits="userSpaceOnUse" x="0" y="0" width="553" height="474">
<rect width="553" height="474" rx="15" fill="white"/>
</mask>
<g mask="url(#mask0_859_909)">
<rect width="553" height="474" rx="15" fill="#80C7F2"/>
<path d="M2 77H551" stroke="#54A2EB" stroke-width="10"/>
<path d="M2 157H551" stroke="#54A2EB" stroke-width="10"/>
<path d="M2 237H551" stroke="#54A2EB" stroke-width="10"/>
<path d="M2 317H551" stroke="#54A2EB" stroke-width="10"/>
<path d="M2 397H551" stroke="#54A2EB" stroke-width="10"/>
<path d="M26 99.5L70.5 55" stroke="#54A2EB" stroke-width="5"/>
<path d="M48.4663 108.716V45.7837" stroke="#54A2EB" stroke-width="5"/>
<path d="M27 55L71.5 99.5" stroke="#54A2EB" stroke-width="5"/>
<path d="M26 179.716L70.5 135.216" stroke="#54A2EB" stroke-width="5"/>
<path d="M48.4663 188.933V126" stroke="#54A2EB" stroke-width="5"/>
<path d="M27 135.216L71.5 179.716" stroke="#54A2EB" stroke-width="5"/>
<path d="M26 259.716L70.5 215.216" stroke="#54A2EB" stroke-width="5"/>
<path d="M48.4663 268.933V206" stroke="#54A2EB" stroke-width="5"/>
<path d="M27 215.216L71.5 259.716" stroke="#54A2EB" stroke-width="5"/>
<path d="M26 339.716L70.5 295.216" stroke="#54A2EB" stroke-width="5"/>
<path d="M48.4663 348.933V286" stroke="#54A2EB" stroke-width="5"/>
<path d="M27 295.216L71.5 339.716" stroke="#54A2EB" stroke-width="5"/>
<path d="M26 419.716L70.5 375.216" stroke="#54A2EB" stroke-width="5"/>
<path d="M48.4663 428.933V366" stroke="#54A2EB" stroke-width="5"/>
<path d="M27 375.216L71.5 419.716" stroke="#54A2EB" stroke-width="5"/>
<path d="M140 99.5L184.5 55" stroke="#54A2EB" stroke-width="5"/>
<path d="M162.466 108.716V45.7837" stroke="#54A2EB" stroke-width="5"/>
<path d="M141 55L185.5 99.5" stroke="#54A2EB" stroke-width="5"/>
<path d="M140 179.716L184.5 135.216" stroke="#54A2EB" stroke-width="5"/>
<path d="M162.466 188.933V126" stroke="#54A2EB" stroke-width="5"/>
<path d="M141 135.216L185.5 179.716" stroke="#54A2EB" stroke-width="5"/>
<path d="M140 259.716L184.5 215.216" stroke="#54A2EB" stroke-width="5"/>
<path d="M162.466 268.933V206" stroke="#54A2EB" stroke-width="5"/>
<path d="M141 215.216L185.5 259.716" stroke="#54A2EB" stroke-width="5"/>
<path d="M140 339.716L184.5 295.216" stroke="#54A2EB" stroke-width="5"/>
<path d="M162.466 348.933V286" stroke="#54A2EB" stroke-width="5"/>
<path d="M141 295.216L185.5 339.716" stroke="#54A2EB" stroke-width="5"/>
<path d="M140 419.716L184.5 375.216" stroke="#54A2EB" stroke-width="5"/>
<path d="M162.466 428.933V366" stroke="#54A2EB" stroke-width="5"/>
<path d="M141 375.216L185.5 419.716" stroke="#54A2EB" stroke-width="5"/>
<path d="M254 99.5L298.5 55" stroke="#54A2EB" stroke-width="5"/>
<path d="M276.466 108.716V45.7837" stroke="#54A2EB" stroke-width="5"/>
<path d="M255 55L299.5 99.5" stroke="#54A2EB" stroke-width="5"/>
<path d="M254 179.716L298.5 135.216" stroke="#54A2EB" stroke-width="5"/>
<path d="M276.466 188.933V126" stroke="#54A2EB" stroke-width="5"/>
<path d="M255 135.216L299.5 179.716" stroke="#54A2EB" stroke-width="5"/>
<path d="M254 259.716L298.5 215.216" stroke="#54A2EB" stroke-width="5"/>
<path d="M276.466 268.933V206" stroke="#54A2EB" stroke-width="5"/>
<path d="M255 215.216L299.5 259.716" stroke="#54A2EB" stroke-width="5"/>
<path d="M254 339.716L298.5 295.216" stroke="#54A2EB" stroke-width="5"/>
<path d="M276.466 348.933V286" stroke="#54A2EB" stroke-width="5"/>
<path d="M255 295.216L299.5 339.716" stroke="#54A2EB" stroke-width="5"/>
<path d="M254 419.716L298.5 375.216" stroke="#54A2EB" stroke-width="5"/>
<path d="M276.466 428.933V366" stroke="#54A2EB" stroke-width="5"/>
<path d="M255 375.216L299.5 419.716" stroke="#54A2EB" stroke-width="5"/>
<path d="M368 99.5L412.5 55" stroke="#54A2EB" stroke-width="5"/>
<path d="M390.466 108.716V45.7837" stroke="#54A2EB" stroke-width="5"/>
<path d="M369 55L413.5 99.5" stroke="#54A2EB" stroke-width="5"/>
<path d="M368 179.716L412.5 135.216" stroke="#54A2EB" stroke-width="5"/>
<path d="M390.466 188.933V126" stroke="#54A2EB" stroke-width="5"/>
<path d="M369 135.216L413.5 179.716" stroke="#54A2EB" stroke-width="5"/>
<path d="M368 259.716L412.5 215.216" stroke="#54A2EB" stroke-width="5"/>
<path d="M390.466 268.933V206" stroke="#54A2EB" stroke-width="5"/>
<path d="M369 215.216L413.5 259.716" stroke="#54A2EB" stroke-width="5"/>
<path d="M368 339.716L412.5 295.216" stroke="#54A2EB" stroke-width="5"/>
<path d="M390.466 348.933V286" stroke="#54A2EB" stroke-width="5"/>
<path d="M369 295.216L413.5 339.716" stroke="#54A2EB" stroke-width="5"/>
<path d="M368 419.716L412.5 375.216" stroke="#54A2EB" stroke-width="5"/>
<path d="M390.466 428.933V366" stroke="#54A2EB" stroke-width="5"/>
<path d="M369 375.216L413.5 419.716" stroke="#54A2EB" stroke-width="5"/>
<path d="M482 99.5L526.5 55" stroke="#54A2EB" stroke-width="5"/>
<path d="M504.466 108.716V45.7837" stroke="#54A2EB" stroke-width="5"/>
<path d="M483 55L527.5 99.5" stroke="#54A2EB" stroke-width="5"/>
<path d="M482 179.716L526.5 135.216" stroke="#54A2EB" stroke-width="5"/>
<path d="M504.466 188.933V126" stroke="#54A2EB" stroke-width="5"/>
<path d="M483 135.216L527.5 179.716" stroke="#54A2EB" stroke-width="5"/>
<path d="M482 259.716L526.5 215.216" stroke="#54A2EB" stroke-width="5"/>
<path d="M504.466 268.933V206" stroke="#54A2EB" stroke-width="5"/>
<path d="M483 215.216L527.5 259.716" stroke="#54A2EB" stroke-width="5"/>
<path d="M482 339.716L526.5 295.216" stroke="#54A2EB" stroke-width="5"/>
<path d="M504.466 348.933V286" stroke="#54A2EB" stroke-width="5"/>
<path d="M483 295.216L527.5 339.716" stroke="#54A2EB" stroke-width="5"/>
<path d="M482 419.716L526.5 375.216" stroke="#54A2EB" stroke-width="5"/>
<path d="M504.466 428.933V366" stroke="#54A2EB" stroke-width="5"/>
<path d="M483 375.216L527.5 419.716" stroke="#54A2EB" stroke-width="5"/>
</g>
</svg>
