<svg width="553" height="474" viewBox="0 0 553 474" fill="none" xmlns="http://www.w3.org/2000/svg">
<rect width="553" height="474" rx="15" fill="#CEECF2"/>
<path d="M50.5 71.5L186.5 184.5" stroke="#80C7F2" stroke-width="2"/>
<path d="M454 77L191.5 187.5" stroke="#80C7F2" stroke-width="2"/>
<path d="M86 384L187.5 189" stroke="#80C7F2" stroke-width="2"/>
<path d="M354 419L187.5 185" stroke="#80C7F2" stroke-width="2"/>
<path fill-rule="evenodd" clip-rule="evenodd" d="M216.708 225L147.571 155.863L157.863 145.571L227 214.708L216.708 225Z" fill="#54A2EB"/>
<path fill-rule="evenodd" clip-rule="evenodd" d="M147.572 214.708L216.708 145.571L227 155.863L157.864 225L147.572 214.708Z" fill="#54A2EB"/>
<path fill-rule="evenodd" clip-rule="evenodd" d="M340.366 280.26L261.036 234.458L266.036 225.798L345.366 271.599L340.366 280.26Z" fill="#939393"/>
<path fill-rule="evenodd" clip-rule="evenodd" d="M147.606 254.357C185.683 276.341 234.373 263.295 256.357 225.217C278.341 187.14 265.295 138.45 227.217 116.466C189.14 94.4819 140.45 107.528 118.466 145.606C96.4818 183.683 109.528 232.373 147.606 254.357ZM142.606 263.017C185.466 287.763 240.272 273.078 265.017 230.217C289.763 187.357 275.078 132.551 232.217 107.806C189.357 83.0602 134.551 97.7453 109.806 140.606C85.0601 183.466 99.7452 238.272 142.606 263.017Z" fill="black"/>
<path fill-rule="evenodd" clip-rule="evenodd" d="M460.395 368.412L327.603 291.745L347.603 257.104L480.395 333.771L460.395 368.412Z" fill="black"/>
<circle cx="454.5" cy="76.5" r="8.5" fill="#80C7F2"/>
<circle cx="257.5" cy="47.5" r="8.5" fill="#80C7F2"/>
<circle cx="42.5" cy="245.5" r="8.5" fill="#80C7F2"/>
<circle cx="353.5" cy="418.5" r="8.5" fill="#80C7F2"/>
<circle cx="500.5" cy="391.5" r="8.5" fill="#80C7F2"/>
<circle cx="353.5" cy="196.5" r="8.5" fill="#80C7F2"/>
<circle cx="529.5" cy="180.5" r="8.5" fill="#80C7F2"/>
<circle cx="186.5" cy="312.5" r="8.5" fill="#80C7F2"/>
<circle cx="85.5" cy="383.5" r="8.5" fill="#80C7F2"/>
<circle cx="50.5" cy="71.5" r="8.5" fill="#80C7F2"/>
<path d="M191.807 388.071L192.626 387.251C195.455 384.455 197.946 382.462 200.099 381.273C202.269 380.1 204.342 379.473 206.318 379.392C208.295 379.312 210.368 379.521 212.538 380.019C214.177 380.373 215.736 380.598 217.214 380.694C218.693 380.791 220.083 380.654 221.385 380.284C222.702 379.899 223.884 379.184 224.928 378.139C226.037 377.03 226.744 375.793 227.049 374.427C227.355 373.061 227.282 371.703 226.832 370.353C226.399 369.019 225.643 367.814 224.567 366.737C223.522 365.692 222.301 364.937 220.902 364.471C219.52 363.989 218.082 363.9 216.587 364.206C215.109 364.495 213.687 365.274 212.321 366.544L202.486 356.709C205.78 353.575 209.203 351.695 212.755 351.068C216.322 350.425 219.826 350.795 223.265 352.177C226.72 353.543 229.902 355.68 232.811 358.589C236.009 361.787 238.307 365.146 239.705 368.665C241.119 372.169 241.529 375.616 240.934 379.007C240.34 382.398 238.636 385.499 235.824 388.312C233.944 390.192 231.959 391.55 229.87 392.386C227.813 393.221 225.667 393.647 223.434 393.663C221.216 393.663 218.902 393.358 216.491 392.747C214.466 392.233 212.634 391.976 210.995 391.976C209.372 391.992 207.821 392.337 206.342 393.012C204.88 393.703 203.353 394.828 201.762 396.387L200.943 397.207L191.807 388.071ZM181.152 408.271C179.545 406.664 178.733 404.728 178.717 402.462C178.733 400.196 179.545 398.275 181.152 396.701C182.711 395.11 184.615 394.314 186.865 394.314C189.131 394.33 191.067 395.142 192.674 396.749C194.201 398.275 194.981 400.18 195.013 402.462C195.045 404.744 194.281 406.68 192.723 408.271C191.646 409.316 190.392 410.007 188.962 410.344C187.564 410.682 186.166 410.682 184.768 410.344C183.386 409.991 182.18 409.3 181.152 408.271Z" fill="#80C7F2"/>
<path d="M464.535 203.521L464.235 202.401C463.228 198.553 462.747 195.4 462.794 192.94C462.863 190.475 463.357 188.366 464.276 186.614C465.194 184.862 466.412 183.171 467.928 181.541C469.054 180.299 470.028 179.061 470.851 177.829C471.674 176.597 472.25 175.324 472.581 174.012C472.906 172.678 472.877 171.298 472.495 169.871C472.089 168.356 471.371 167.125 470.341 166.178C469.31 165.23 468.098 164.614 466.704 164.328C465.332 164.037 463.91 164.089 462.44 164.483C461.013 164.865 459.748 165.545 458.645 166.523C457.537 167.479 456.741 168.68 456.258 170.127C455.769 171.552 455.733 173.174 456.15 174.992L442.715 178.592C441.648 174.172 441.731 170.267 442.964 166.878C444.191 163.467 446.263 160.618 449.179 158.33C452.09 156.021 455.532 154.334 459.506 153.269C463.874 152.099 467.932 151.788 471.679 152.337C475.42 152.864 478.61 154.232 481.25 156.443C483.889 158.653 485.723 161.679 486.753 165.521C487.441 168.09 487.625 170.487 487.304 172.714C486.999 174.914 486.295 176.985 485.192 178.927C484.083 180.848 482.662 182.699 480.927 184.482C479.47 185.978 478.331 187.436 477.511 188.856C476.714 190.269 476.238 191.785 476.083 193.403C475.95 195.015 476.161 196.9 476.715 199.057L477.015 200.177L464.535 203.521ZM476.702 222.848C474.507 223.437 472.424 223.171 470.454 222.052C468.499 220.905 467.242 219.242 466.682 217.063C466.083 214.918 466.346 212.871 467.471 210.922C468.618 208.968 470.289 207.696 472.485 207.108C474.57 206.549 476.609 206.827 478.601 207.94C480.594 209.053 481.889 210.682 482.488 212.828C482.854 214.283 482.826 215.714 482.403 217.121C481.996 218.501 481.297 219.711 480.305 220.754C479.308 221.774 478.107 222.472 476.702 222.848Z" fill="#80C7F2"/>
</svg>
