<svg width="553" height="474" viewBox="0 0 553 474" fill="none" xmlns="http://www.w3.org/2000/svg">
<rect width="553" height="474" rx="15" fill="#CEECF2"/>
<rect y="353" width="553" height="121" fill="#80C7F2"/>
<path d="M72 338.72V362.937C72 366.584 74.957 369.541 78.6047 369.541H456.395C460.043 369.541 463 366.584 463 362.937V304.48C463 301.957 461.562 299.654 459.296 298.546L426.816 282.671C426.409 282.472 426.102 282.114 425.966 281.682L406.166 218.626C405.301 215.873 402.75 214 399.865 214H206.717C204.116 214 201.758 215.526 200.692 217.898L173.018 279.495C172.204 281.307 170.617 282.657 168.698 283.169L112.659 298.14C107.219 299.594 102.241 302.414 98.1975 306.334L77.0191 326.864C73.8109 329.974 72 334.251 72 338.72Z" fill="#005468"/>
<path d="M204.344 237.109L187.087 279.057H296.726V233.484C296.726 229.836 293.769 226.879 290.121 226.879H219.614C212.922 226.879 206.891 230.919 204.344 237.109Z" fill="#A7D6CC"/>
<path d="M390.392 226.879H312.577C308.93 226.879 305.973 229.836 305.973 233.484V279.057H409.997L396.752 231.705C395.954 228.852 393.354 226.879 390.392 226.879Z" fill="#A7D6CC"/>
<path d="M207.562 363.432C207.562 381.579 192.851 396.291 174.703 396.291C156.556 396.291 141.845 381.579 141.845 363.432C141.845 345.285 156.556 330.573 174.703 330.573C192.851 330.573 207.562 345.285 207.562 363.432Z" fill="white"/>
<path fill-rule="evenodd" clip-rule="evenodd" d="M174.703 383.081C185.555 383.081 194.352 374.284 194.352 363.432C194.352 352.58 185.555 343.783 174.703 343.783C163.851 343.783 155.054 352.58 155.054 363.432C155.054 374.284 163.851 383.081 174.703 383.081ZM174.703 396.291C192.851 396.291 207.562 381.579 207.562 363.432C207.562 345.285 192.851 330.573 174.703 330.573C156.556 330.573 141.845 345.285 141.845 363.432C141.845 381.579 156.556 396.291 174.703 396.291Z" fill="black"/>
<path d="M423.537 363.432C423.537 381.579 408.826 396.291 390.678 396.291C372.531 396.291 357.82 381.579 357.82 363.432C357.82 345.285 372.531 330.573 390.678 330.573C408.826 330.573 423.537 345.285 423.537 363.432Z" fill="white"/>
<path fill-rule="evenodd" clip-rule="evenodd" d="M390.678 383.081C401.53 383.081 410.327 374.284 410.327 363.432C410.327 352.58 401.53 343.783 390.678 343.783C379.826 343.783 371.029 352.58 371.029 363.432C371.029 374.284 379.826 383.081 390.678 383.081ZM390.678 396.291C408.826 396.291 423.537 381.579 423.537 363.432C423.537 345.285 408.826 330.573 390.678 330.573C372.531 330.573 357.82 345.285 357.82 363.432C357.82 381.579 372.531 396.291 390.678 396.291Z" fill="black"/>
<circle cx="98.3752" cy="116.375" r="62.3752" fill="#00BBBC"/>
<path d="M121.931 75.4827H98.1548L74.8193 121.323H92.5778L77.7546 157.645L117.674 113.561L98.1548 110.193L121.931 75.4827Z" fill="white"/>
<circle cx="477.636" cy="189.636" r="47.6359" fill="#00BBBC"/>
<path d="M495.625 158.406H477.468L459.646 193.415H473.209L461.888 221.153L492.375 187.487L477.468 184.914L495.625 158.406Z" fill="white"/>
<circle cx="275.127" cy="55.127" r="42.127" fill="#00BBBC"/>
<path d="M291.036 27.509H274.978L259.218 58.469H271.211L261.2 82.9995L288.161 53.2266L274.978 50.9515L291.036 27.509Z" fill="white"/>
<circle cx="437.5" cy="57.5" r="25.5" fill="#00BBBC"/>
<path d="M447.13 40.7825H437.41L427.87 59.5229H435.13L429.07 74.3716L445.39 56.3496L437.41 54.9725L447.13 40.7825Z" fill="white"/>
<circle cx="324.057" cy="156.057" r="17.0565" fill="#00BBBC"/>
<path d="M330.498 144.875H323.996L317.615 157.41H322.471L318.418 167.342L329.334 155.287L323.996 154.366L330.498 144.875Z" fill="white"/>
</svg>
