<svg width="553" height="474" viewBox="0 0 553 474" fill="none" xmlns="http://www.w3.org/2000/svg">
<mask id="mask0_859_844" style="mask-type:alpha" maskUnits="userSpaceOnUse" x="0" y="0" width="553" height="474">
<rect width="553" height="474" rx="15" fill="white"/>
</mask>
<g mask="url(#mask0_859_844)">
<rect width="553" height="474" rx="15" fill="#CEECF2"/>
<path d="M246.809 118.764L309.574 155.001L333.921 112.831L271.156 76.5936L300.149 102.813L207.899 71.7821L284.012 130.763L246.809 118.764Z" fill="#A19BF6"/>
<circle cx="321.851" cy="134.303" r="24.6301" transform="rotate(-150 321.851 134.303)" fill="#A19BF6"/>
<circle cx="322.134" cy="133.813" r="20.1005" transform="rotate(-150 322.134 133.813)" fill="#5C54C3"/>
<path d="M441.809 200.764L504.574 237.001L528.921 194.831L466.156 158.594L495.149 184.813L402.899 153.782L479.012 212.763L441.809 200.764Z" fill="#A19BF6"/>
<circle cx="516.851" cy="216.303" r="24.6301" transform="rotate(-150 516.851 216.303)" fill="#A19BF6"/>
<circle cx="517.134" cy="215.813" r="20.1005" transform="rotate(-150 517.134 215.813)" fill="#5C54C3"/>
<path d="M66.8086 230.764L129.574 267.001L153.921 224.831L91.1557 188.594L120.149 214.813L27.8995 183.782L104.012 242.763L66.8086 230.764Z" fill="#A19BF6"/>
<circle cx="141.851" cy="246.303" r="24.6301" transform="rotate(-150 141.851 246.303)" fill="#A19BF6"/>
<circle cx="142.134" cy="245.813" r="20.1005" transform="rotate(-150 142.134 245.813)" fill="#5C54C3"/>
<path d="M246.809 403.764L309.574 440.001L333.921 397.831L271.156 361.594L300.149 387.813L207.899 356.782L284.012 415.763L246.809 403.764Z" fill="#A19BF6"/>
<circle cx="321.851" cy="419.303" r="24.6301" transform="rotate(-150 321.851 419.303)" fill="#A19BF6"/>
<circle cx="322.134" cy="418.813" r="20.1005" transform="rotate(-150 322.134 418.813)" fill="#5C54C3"/>
<path d="M300.969 322.978L411.82 386.978L454.82 312.5L343.969 248.5L395.175 294.807L276.53 226.307L352.083 292.445L232.25 240.002L341.583 310.631L248.03 275.671L366.675 344.171L300.969 322.978Z" fill="#80C7F2"/>
<circle cx="433.503" cy="350.422" r="43.5" transform="rotate(-150 433.503 350.422)" fill="#80C7F2"/>
<circle cx="434.003" cy="349.556" r="35.5" transform="rotate(-150 434.003 349.556)" fill="#044BD9"/>
<path d="M348.969 49.9781L459.82 113.978L502.82 39.5L391.969 -24.5L443.175 21.8073L324.53 -46.6927L400.083 19.4448L280.25 -32.9978L389.583 37.6314L296.03 2.67077L414.675 71.1708L348.969 49.9781Z" fill="#80C7F2"/>
<circle cx="481.503" cy="77.4221" r="43.5" transform="rotate(-150 481.503 77.4221)" fill="#80C7F2"/>
<circle cx="482.003" cy="76.5561" r="35.5" transform="rotate(-150 482.003 76.5561)" fill="#044BD9"/>
<path d="M6.96857 69.9781L117.82 133.978L160.82 59.5L49.9686 -4.50004L101.175 41.8073L-17.4702 -26.6927L58.0833 39.4448L-61.75 -12.9978L47.5833 57.6314L-45.9702 22.6708L72.6753 91.1708L6.96857 69.9781Z" fill="#80C7F2"/>
<circle cx="139.503" cy="97.4221" r="43.5" transform="rotate(-150 139.503 97.4221)" fill="#80C7F2"/>
<circle cx="140.003" cy="96.5561" r="35.5" transform="rotate(-150 140.003 96.5561)" fill="#044BD9"/>
<path d="M9.96857 361.978L120.82 425.978L163.82 351.5L52.9686 287.5L104.175 333.807L-14.4702 265.307L61.0833 331.445L-58.75 279.002L50.5833 349.631L-42.9702 314.671L75.6753 383.171L9.96857 361.978Z" fill="#80C7F2"/>
<circle cx="142.503" cy="389.422" r="43.5" transform="rotate(-150 142.503 389.422)" fill="#80C7F2"/>
<circle cx="143.003" cy="388.556" r="35.5" transform="rotate(-150 143.003 388.556)" fill="#044BD9"/>
<path d="M199 164L210.011 166L213.354 152L218.27 164L228.494 156.8L223.382 168.8L234 173.6L222.006 176.8L226.725 189.2L217.287 181.6L212.371 194L210.011 180.6L199 183L206.669 171.2L199 164Z" fill="#54A2EB"/>
<path d="M376 192.429L382.921 193.667L385.022 185L388.112 192.429L394.539 187.971L391.326 195.4L398 198.371L390.461 200.352L393.427 208.029L387.494 203.324L384.404 211L382.921 202.705L376 204.19L380.82 196.886L376 192.429Z" fill="#54A2EB"/>
<path d="M511 134.429L517.921 135.667L520.022 127L523.112 134.429L529.539 129.971L526.326 137.4L533 140.371L525.461 142.352L528.427 150.029L522.494 145.324L519.404 153L517.921 144.705L511 146.19L515.82 138.886L511 134.429Z" fill="#54A2EB"/>
<path d="M506.132 399L508.662 415.915L527 422.298H513.088L523.522 436.979L508.662 430.915L506.132 444L500.441 425.809L484 422.298L495.382 415.915L486.213 403.468L500.441 412.723L506.132 399Z" fill="#54A2EB"/>
<path d="M43.1324 119L45.6618 135.915L64 142.298H50.0882L60.5221 156.979L45.6618 150.915L43.1324 164L37.4412 145.809L21 142.298L32.3824 135.915L23.2132 123.468L37.4412 132.723L43.1324 119Z" fill="#54A2EB"/>
<path d="M175.353 12L176.765 21.3972L187 24.9433H179.235L185.059 33.0993L176.765 29.7305L175.353 37L172.176 26.8936L163 24.9433L169.353 21.3972L164.235 14.4823L172.176 19.6241L175.353 12Z" fill="#54A2EB"/>
<path d="M48.56 425L46.04 436.937L55 442.337H44.08L41.84 452L36.52 442.337H27L34 436.937L32.04 426.989L39.6 431.253L48.56 425Z" fill="#54A2EB"/>
<path d="M222.56 305L220.04 316.937L229 322.337H218.08L215.84 332L210.52 322.337H201L208 316.937L206.04 306.989L213.6 311.253L222.56 305Z" fill="#54A2EB"/>
<path d="M291.56 24L289.04 35.9368L298 41.3368H287.08L284.84 51L279.52 41.3368H270L277 35.9368L275.04 25.9895L282.6 30.2526L291.56 24Z" fill="#54A2EB"/>
</g>
</svg>
