<?xml version="1.0" encoding="UTF-8"?>
<svg id="Layer_1" data-name="Layer 1" xmlns="http://www.w3.org/2000/svg" viewBox="0 0 1080 1080">
  <defs>
    <style>
      .cls-1 {
        fill: #231f20;
      }
    </style>
  </defs>
  <path class="cls-1" d="M607.02,168.92c-21.7-3.88-44.06-5.9-66.88-5.9-13.75,0-27.34.74-40.71,2.17,83.7,175.15,64.71,273.81,41.73,369.58.81.19,1.75.56,2.45.95,48.82-85.65,94.76-175.19,63.41-366.8Z"/>
  <path class="cls-1" d="M717.29,207.02c-15.62,84.38-38.26,150.18-66.66,200.72-30.55,55.26-67.86,92.62-105.44,129.17.51.53.96,1.15,1.33,1.85,46.33-24.59,92.63-50.1,137.58-93.86,43.22-41.08,85.19-98.98,126.29-168.2-27.14-27.74-58.52-51.33-93.09-69.69Z"/>
  <path class="cls-1" d="M510.59,370.78c-19.67-54.5-54.73-114.69-108.4-181.79-31.33,12.28-60.62,28.63-87.23,48.4,62.87,50.53,114.38,100.23,148.92,148.74,36.91,50.52,55.47,99.74,73.11,148.95.74-.27,1.49-.42,2.22-.47-3-52.21-6.82-104.69-28.62-163.83Z"/>
  <path class="cls-1" d="M872.51,360.82c-58.76,57.66-114.5,101.11-166.75,128.38-55.5,29.69-107.1,41.23-158.42,51.88.14.68.18,1.38.12,2.03,98.16,9.76,201.84,9.85,360.34-90.35-7.77-32.48-19.73-63.32-35.28-91.94Z"/>
  <path class="cls-1" d="M422.5,413.96c-46.36-36.08-108.99-68.63-186.01-98.11-23.31,31.36-41.86,66.46-54.6,104.23,187.64.66,274.32,56.37,351.43,117.55.41-.52.9-.99,1.48-1.41-30.75-42.24-62.41-84.23-112.3-122.26Z"/>
  <path class="cls-1" d="M709.02,586.37c-63.79-4.11-113.25-22.4-162-41.34-.05.12-.08.22-.13.34-.32.81-.68,1.47-1.12,2.03,76.85,61.17,164.12,116.98,351.13,118.87,12.22-34.79,19.49-71.91,20.96-110.52-86.57,27.01-153.17,34.22-208.85,30.62Z"/>
  <path class="cls-1" d="M162.27,530.29c-.1,3.57-.15,7.15-.15,10.75,0,31.47,3.84,62.05,11.1,91.28,157.27-99.7,260.55-100.26,358.43-90.4.06-.71.25-1.44.56-2.25-91.32-35.35-184.88-68.15-369.94-9.38Z"/>
  <path class="cls-1" d="M657.13,671.4c-50.21-38.22-82.1-80.3-112.83-122.59-.65.47-1.41.86-2.18,1.14,17.61,49.23,36.46,98.6,73.82,149.36,34.39,47.94,85.34,97.11,147.11,147.06,29.71-21.72,56.13-47.69,78.37-76.99-75.92-29.57-138.11-62.08-184.28-97.98Z"/>
  <path class="cls-1" d="M531.78,543.95c-51.34,10.6-102.87,22.37-158.28,52.37-51.6,27.25-106.58,70.42-164.48,127.2,16.91,30.63,37.96,58.67,62.39,83.36,40.34-67.99,81.46-125.23,123.85-166.05,44.8-44.21,91-70.01,137.35-94.57-.38-.72-.67-1.52-.83-2.31Z"/>
  <path class="cls-1" d="M569.35,714.84c-22.36-59.51-26.48-112.19-29.46-164.42-.65.04-1.29-.01-1.95-.17-22.77,94.76-40.59,193.24,41.99,366.72,33.67-3.52,66.02-11.46,96.46-23.23-52.57-65.93-87.28-125.21-107.04-178.91Z"/>
  <path class="cls-1" d="M535.48,549.29c-.59-.33-1.09-.71-1.54-1.18-37.61,36.54-74.75,74.22-105.03,130.05-27.57,50.02-49.51,114.88-64.75,197.51,33.73,17.78,70.48,30.61,109.28,37.52-30.92-189.51,13.7-279.16,62.04-363.9Z"/>
</svg>