<svg width="553" height="474" viewBox="0 0 553 474" fill="none" xmlns="http://www.w3.org/2000/svg">
<rect width="553" height="474" rx="15" fill="#80C7F2"/>
<path d="M462.73 212.922L494.083 228.479L488.749 239.228L457.396 223.671L462.73 212.922Z" fill="#9BD6D2"/>
<path d="M464.664 202.888C465.401 201.403 467.201 200.797 468.685 201.534L499.081 216.617C500.565 217.353 501.171 219.153 500.435 220.638L496.919 227.722C496.183 229.206 494.383 229.812 492.898 229.076L462.502 213.993C461.018 213.257 460.412 211.456 461.149 209.972L464.664 202.888Z" fill="#9CD9D4"/>
<path d="M444.104 215.948L473.059 230.353L503.501 244.021C510.82 247.306 513.886 256.058 510.217 263.193L505.702 271.976C504.542 274.233 502.828 276.158 500.721 277.573L497.61 279.66L500.795 289.017C501.671 291.593 501.461 294.414 500.211 296.831L494.777 307.346C493.541 309.737 491.393 311.53 488.818 312.317L484.185 313.734L486.187 319.618C487.089 322.267 486.839 325.173 485.499 327.63L479.499 338.624C478.155 341.086 475.839 342.871 473.114 343.543L468.638 344.646L471.563 350.837C472.916 353.702 472.832 357.039 471.335 359.832L465.057 371.547C463.628 374.214 461.068 376.091 458.094 376.651L452.97 377.616L456.152 385.5C457.167 388.016 457.117 390.837 456.012 393.315L440.358 428.427C435.773 438.712 423.604 443.185 413.449 438.319L355.473 410.54C345.526 405.774 341.315 393.853 346.063 383.896L363.004 348.363C364.378 345.482 367.044 343.43 370.18 342.839L376 341.743L373.078 334.666C371.963 331.967 372.084 328.915 373.409 326.313L379.423 314.501C380.654 312.083 382.815 310.269 385.41 309.475L390.009 308.068L387.705 302.205C386.682 299.601 386.796 296.689 388.019 294.173L393.731 282.431C394.946 279.934 397.144 278.055 399.799 277.243L404.295 275.867L403.292 274.292C401.223 271.04 401.007 266.943 402.722 263.491L408.96 250.939C410.495 247.852 413.387 245.663 416.775 245.024L422.206 244.001L421.877 243.382C419.611 239.125 419.53 234.039 421.66 229.712L425.307 222.301C428.731 215.342 437.16 212.494 444.104 215.948Z" fill="#C0F9F3"/>
<path fill-rule="evenodd" clip-rule="evenodd" d="M496.043 281.49L422.803 246.665L424.521 243.052L497.761 277.878L496.043 281.49Z" fill="#9CD9D4"/>
<path fill-rule="evenodd" clip-rule="evenodd" d="M483.136 315.112L404.356 277.981L406.062 274.362L484.841 311.494L483.136 315.112Z" fill="#9CD9D4"/>
<path fill-rule="evenodd" clip-rule="evenodd" d="M466.923 346.275L389.797 310.373L391.485 306.747L468.611 342.648L466.923 346.275Z" fill="#9CD9D4"/>
<path fill-rule="evenodd" clip-rule="evenodd" d="M451.969 379.586L375.767 344.069L377.457 340.444L453.659 375.961L451.969 379.586Z" fill="#9CD9D4"/>
<path d="M40.6724 321.599L58.447 306.031L63.7843 312.125L46.0097 327.693L40.6724 321.599Z" fill="#9BD6D2"/>
<path d="M34.9071 317.811C34.1702 316.97 34.2549 315.69 35.0963 314.953L52.3288 299.861C53.1702 299.124 54.4497 299.209 55.1867 300.05L58.7044 304.066C59.4413 304.908 59.3566 306.187 58.5152 306.924L41.2827 322.017C40.4413 322.754 39.1617 322.669 38.4248 321.828L34.9071 317.811Z" fill="#9CD9D4"/>
<path d="M37.7702 334.003L54.2086 319.636L70.5696 304.151C74.503 300.428 80.7543 300.765 84.2642 304.89L88.5844 309.967C89.6947 311.272 90.4558 312.837 90.7965 314.516L91.2994 316.995L97.9588 317.414C99.7918 317.529 101.499 318.386 102.686 319.787L107.851 325.884C109.026 327.27 109.592 329.072 109.421 330.882L109.114 334.138L113.301 334.402C115.187 334.52 116.937 335.424 118.125 336.892L123.444 343.465C124.635 344.937 125.153 346.842 124.872 348.715L124.409 351.793L129.026 351.56C131.162 351.452 133.223 352.363 134.581 354.015L140.279 360.947C141.576 362.525 142.088 364.606 141.673 366.606L140.957 370.053L146.697 370.095C148.529 370.108 150.276 370.865 151.538 372.192L169.428 390.994C174.668 396.501 174.33 405.247 168.681 410.334L136.43 439.375C130.896 444.358 122.373 443.919 117.379 438.395L99.5585 418.681C98.1138 417.083 97.5187 414.891 97.9566 412.782L98.7694 408.867L93.6006 408.871C91.6292 408.872 89.7557 408.012 88.4721 406.515L82.6462 399.724C81.4535 398.333 80.8771 396.518 81.0491 394.694L81.354 391.462L77.1016 391.392C75.2136 391.361 73.4249 390.54 72.1697 389.13L66.3098 382.544C65.0638 381.144 64.456 379.289 64.6321 377.422L64.9302 374.262L63.6888 374.483C61.127 374.938 58.5139 374.019 56.8009 372.061L50.5708 364.939C49.0385 363.187 48.4161 360.818 48.8892 358.54L49.6476 354.887L49.1762 354.933C45.9365 355.252 42.7409 353.994 40.588 351.552L36.9005 347.37C33.4381 343.442 33.8281 337.449 37.7702 334.003Z" fill="#C0F9F3"/>
<path fill-rule="evenodd" clip-rule="evenodd" d="M92.0389 318.443L51.4637 355.199L49.6508 353.198L90.226 316.441L92.0389 318.443Z" fill="#9CD9D4"/>
<path fill-rule="evenodd" clip-rule="evenodd" d="M109.705 335.147L66.2653 374.768L64.4456 372.772L107.885 333.152L109.705 335.147Z" fill="#9CD9D4"/>
<path fill-rule="evenodd" clip-rule="evenodd" d="M124.984 353.282L82.7384 392.187L80.9091 390.2L123.155 351.296L124.984 353.282Z" fill="#9CD9D4"/>
<path fill-rule="evenodd" clip-rule="evenodd" d="M141.93 371.184L100.162 409.611L98.3334 407.623L140.102 369.196L141.93 371.184Z" fill="#9CD9D4"/>
<path d="M357.12 135.403L346.739 140.513L344.986 136.954L355.367 131.843L357.12 135.403Z" fill="#9BD6D2"/>
<path d="M359.367 137.925C359.609 138.416 359.406 139.011 358.915 139.253L348.851 144.208C348.359 144.45 347.765 144.247 347.523 143.756L346.368 141.41C346.126 140.919 346.328 140.324 346.82 140.082L356.884 135.127C357.375 134.885 357.97 135.088 358.212 135.579L359.367 137.925Z" fill="#9CD9D4"/>
<path d="M360.065 129.903L350.468 134.615L340.766 139.867C338.434 141.129 335.519 140.177 334.382 137.781L332.982 134.832C332.622 134.074 332.46 133.237 332.512 132.4L332.588 131.164L329.491 130.121C328.639 129.834 327.94 129.213 327.556 128.399L325.886 124.861C325.506 124.056 325.466 123.132 325.777 122.298L326.335 120.796L324.387 120.141C323.51 119.846 322.797 119.197 322.421 118.351L320.738 114.568C320.361 113.721 320.358 112.754 320.728 111.904L321.337 110.507L319.124 110.032C318.1 109.812 317.24 109.12 316.807 108.166L314.991 104.165C314.577 103.254 314.598 102.205 315.048 101.311L315.824 99.7718L313.114 99.0244C312.25 98.7859 311.519 98.2064 311.09 97.4187L305.011 86.2577C303.23 82.9884 304.498 78.8941 307.815 77.2039L326.752 67.5545C330.001 65.8988 333.977 67.1864 335.639 70.4323L341.57 82.0164C342.051 82.9555 342.055 84.0677 341.58 85.0099L340.699 86.7586L343.145 87.412C344.078 87.6613 344.855 88.3058 345.272 89.1763L347.167 93.1273C347.555 93.9362 347.598 94.8679 347.285 95.7088L346.731 97.1991L348.734 97.7713C349.623 98.0253 350.365 98.6401 350.78 99.4665L352.717 103.324C353.129 104.145 353.182 105.099 352.862 105.96L352.32 107.417L352.935 107.47C354.205 107.579 355.324 108.345 355.887 109.488L357.931 113.647C358.434 114.67 358.428 115.869 357.915 116.887L357.093 118.519L357.322 118.557C358.895 118.816 360.247 119.816 360.956 121.244L362.17 123.69C363.31 125.987 362.366 128.773 360.065 129.903Z" fill="#C0F9F3"/>
<path fill-rule="evenodd" clip-rule="evenodd" d="M332.422 130.385L356.274 118.141L356.878 119.317L333.026 131.561L332.422 130.385Z" fill="#9CD9D4"/>
<path fill-rule="evenodd" clip-rule="evenodd" d="M326.183 120.244L351.753 107.009L352.36 108.183L326.791 121.419L326.183 120.244Z" fill="#9CD9D4"/>
<path fill-rule="evenodd" clip-rule="evenodd" d="M321.254 109.729L346.168 96.6809L346.782 97.8524L321.868 110.901L321.254 109.729Z" fill="#9CD9D4"/>
<path fill-rule="evenodd" clip-rule="evenodd" d="M315.507 99.1135L340.135 86.2305L340.748 87.4023L316.12 100.285L315.507 99.1135Z" fill="#9CD9D4"/>
<path d="M40.4772 59.324L212.178 21.941C214.646 21.4037 217.127 22.791 217.961 25.1747L221.753 36.0081C222.701 38.7185 221.177 41.6693 218.418 42.4643L171.653 55.9388C167.776 57.0561 165.644 61.2117 166.997 65.0132L185.53 117.062C186.873 120.835 191.103 122.714 194.804 121.18L238.407 103.11C241.136 101.98 244.245 103.448 245.105 106.274L249.181 119.667C249.93 122.126 248.692 124.752 246.318 125.74L83.1178 193.631C72.2966 198.133 59.9413 192.407 56.3811 181.241L25.677 84.9416C22.0957 73.7093 28.9576 61.832 40.4772 59.324Z" fill="#C0F9F3"/>
<path d="M209.928 303.589L240.278 208.588C241.046 206.182 243.488 204.727 245.97 205.197L249.42 205.849C252.241 206.383 254.035 209.178 253.343 211.965L247.186 236.796C246.215 240.713 248.748 244.637 252.717 245.366L281.152 250.585C285.091 251.308 288.833 248.584 289.356 244.613L292.564 220.21C292.949 217.281 295.775 215.323 298.652 215.991L303.485 217.113C305.989 217.695 307.644 220.08 307.312 222.629L294.358 322.199C292.846 333.821 281.71 341.659 270.259 339.159L224.713 329.215C213.195 326.7 206.34 314.819 209.928 303.589Z" fill="#C0F9F3"/>
<path d="M457.985 138.595L417.1 93.6362C415.506 91.8836 415.469 89.2176 417.015 87.4219C418.771 85.38 421.883 85.2343 423.823 87.1029L433.901 96.8095C436.807 99.6089 441.472 99.3778 444.087 96.3048L454.011 84.6457C456.607 81.5953 456.119 76.9925 452.94 74.5545L442.664 66.6724C440.321 64.8747 440.038 61.4481 442.055 59.2904L442.256 59.0753C444.012 57.1976 446.905 56.9569 448.946 58.5185L497.389 95.5724C506.698 102.693 507.917 116.256 500.026 124.922L487.57 138.604C479.634 147.321 465.917 147.318 457.985 138.595Z" fill="#C0F9F3"/>
</svg>
