<svg width="553" height="474" viewBox="0 0 553 474" fill="none" xmlns="http://www.w3.org/2000/svg">
<rect width="553" height="474" rx="15" fill="#80C7F2"/>
<path d="M243 117V473.5H526V193.5H440V117H243Z" fill="#0455BF"/>
<rect x="462.5" y="288" width="34" height="51" fill="white"/>
<rect x="262.5" y="138" width="34" height="51" fill="white"/>
<rect x="262.5" y="213" width="34" height="51" fill="white"/>
<rect x="262.5" y="288" width="34" height="51" fill="white"/>
<rect x="262.5" y="363" width="34" height="51" fill="white"/>
<rect x="320.5" y="138" width="34" height="51" fill="white"/>
<rect x="320.5" y="213" width="34" height="51" fill="white"/>
<rect x="320.5" y="288" width="34" height="51" fill="white"/>
<rect x="320.5" y="363" width="34" height="51" fill="white"/>
<rect x="378.5" y="138" width="34" height="51" fill="white"/>
<rect x="378.5" y="213" width="34" height="51" fill="white"/>
<rect x="462.5" y="213" width="34" height="51" fill="white"/>
<rect x="462.5" y="363" width="34" height="51" fill="white"/>
<rect x="378.5" y="288" width="34" height="51" fill="white"/>
<rect x="378.5" y="363" width="34" height="51" fill="white"/>
<path d="M183 162.241V473.5H355V162.241H183Z" fill="#1EADB5"/>
<rect x="203.081" y="181.449" width="29.6853" height="44.5279" fill="white"/>
<rect x="203.081" y="246.931" width="29.6853" height="44.5279" fill="white"/>
<rect x="203.081" y="312.414" width="29.6853" height="44.5279" fill="white"/>
<rect x="203.081" y="377.896" width="29.6853" height="44.5279" fill="white"/>
<rect x="253.721" y="181.449" width="29.6853" height="44.5279" fill="white"/>
<rect x="253.721" y="246.931" width="29.6853" height="44.5279" fill="white"/>
<rect x="253.721" y="312.414" width="29.6853" height="44.5279" fill="white"/>
<rect x="253.721" y="377.896" width="29.6853" height="44.5279" fill="white"/>
<rect x="304.36" y="181.449" width="29.6853" height="44.5279" fill="white"/>
<rect x="304.36" y="246.931" width="29.6853" height="44.5279" fill="white"/>
<rect x="304.36" y="312.414" width="29.6853" height="44.5279" fill="white"/>
<rect x="304.36" y="377.896" width="29.6853" height="44.5279" fill="white"/>
<rect x="36.6973" y="264.138" width="144.459" height="208.862" fill="#0455BF" stroke="#0455BF" stroke-width="2"/>
<path d="M52.8716 214L19 266H198.138L166.89 214H52.8716Z" fill="#0455BF"/>
<rect x="93.4219" y="421.046" width="30.5321" height="52.9541" fill="white"/>
<rect x="53.8716" y="282.266" width="21.8532" height="28.5321" stroke="white" stroke-width="2"/>
<rect x="53.8716" y="328.541" width="21.8532" height="28.5321" stroke="white" stroke-width="2"/>
<rect x="53.8716" y="370.046" width="21.8532" height="28.5321" stroke="white" stroke-width="2"/>
<rect x="53.8716" y="422.046" width="21.8532" height="28.5321" stroke="white" stroke-width="2"/>
<rect x="141.651" y="282.266" width="21.8532" height="28.5321" stroke="white" stroke-width="2"/>
<rect x="141.651" y="328.541" width="21.8532" height="28.5321" stroke="white" stroke-width="2"/>
<rect x="141.651" y="370.046" width="21.8532" height="28.5321" stroke="white" stroke-width="2"/>
<rect x="141.651" y="422.046" width="21.8532" height="28.5321" stroke="white" stroke-width="2"/>
<rect x="97.7612" y="282.266" width="21.8532" height="28.5321" stroke="white" stroke-width="2"/>
<rect x="97.7612" y="328.541" width="21.8532" height="28.5321" stroke="white" stroke-width="2"/>
<rect x="97.7612" y="370.046" width="21.8532" height="28.5321" stroke="white" stroke-width="2"/>
<path d="M82.1138 160.727V73.4546H87.7047V160.727H82.1138ZM96.9434 102.261C96.6706 99.5114 95.5002 97.375 93.432 95.8523C91.3638 94.3296 88.557 93.5682 85.0115 93.5682C82.6024 93.5682 80.5684 93.9091 78.9093 94.591C77.2502 95.25 75.9775 96.1705 75.0911 97.3523C74.2275 98.5341 73.7956 99.875 73.7956 101.375C73.7502 102.625 74.0115 103.716 74.5797 104.648C75.1706 105.58 75.9775 106.386 77.0002 107.068C78.0229 107.727 79.2047 108.307 80.5456 108.807C81.8865 109.284 83.3184 109.693 84.8411 110.034L91.1138 111.534C94.1593 112.216 96.9547 113.125 99.5002 114.261C102.046 115.398 104.25 116.796 106.114 118.455C107.977 120.114 109.421 122.068 110.443 124.318C111.489 126.568 112.023 129.148 112.046 132.057C112.023 136.33 110.932 140.034 108.773 143.171C106.637 146.284 103.546 148.705 99.5002 150.432C95.4775 152.136 90.6252 152.989 84.9434 152.989C79.307 152.989 74.3979 152.125 70.2161 150.398C66.057 148.671 62.807 146.114 60.4661 142.727C58.1479 139.318 56.932 135.102 56.8184 130.08H71.1024C71.2615 132.421 71.932 134.375 73.1138 135.943C74.3184 137.489 75.9206 138.659 77.9206 139.455C79.9434 140.227 82.2275 140.614 84.7729 140.614C87.2729 140.614 89.4434 140.25 91.2843 139.523C93.1479 138.796 94.5911 137.784 95.6138 136.489C96.6365 135.193 97.1479 133.705 97.1479 132.023C97.1479 130.455 96.682 129.136 95.7502 128.068C94.8411 127 93.5002 126.091 91.7275 125.341C89.9775 124.591 87.8297 123.909 85.2843 123.296L77.682 121.386C71.7956 119.955 67.1479 117.716 63.7388 114.671C60.3297 111.625 58.6365 107.523 58.6593 102.364C58.6365 98.1364 59.7615 94.4432 62.0343 91.2841C64.3297 88.125 67.4774 85.6591 71.4774 83.8864C75.4774 82.1137 80.0229 81.2273 85.1138 81.2273C90.2956 81.2273 94.8184 82.1137 98.682 83.8864C102.568 85.6591 105.591 88.125 107.75 91.2841C109.909 94.4432 111.023 98.1023 111.091 102.261H96.9434Z" fill="#54A2EB"/>
<path d="M184.114 123.727V36.4546H189.705V123.727H184.114ZM198.943 65.2614C198.671 62.5114 197.5 60.375 195.432 58.8523C193.364 57.3296 190.557 56.5682 187.012 56.5682C184.602 56.5682 182.568 56.9091 180.909 57.591C179.25 58.25 177.977 59.1705 177.091 60.3523C176.227 61.5341 175.796 62.875 175.796 64.375C175.75 65.625 176.012 66.716 176.58 67.6478C177.171 68.5796 177.977 69.3864 179 70.0682C180.023 70.7273 181.205 71.3069 182.546 71.8069C183.887 72.2841 185.318 72.6932 186.841 73.0341L193.114 74.5341C196.159 75.216 198.955 76.125 201.5 77.2614C204.046 78.3978 206.25 79.7955 208.114 81.4546C209.977 83.1137 211.421 85.0682 212.443 87.3182C213.489 89.5682 214.023 92.1478 214.046 95.0569C214.023 99.3296 212.932 103.034 210.773 106.171C208.637 109.284 205.546 111.705 201.5 113.432C197.477 115.136 192.625 115.989 186.943 115.989C181.307 115.989 176.398 115.125 172.216 113.398C168.057 111.671 164.807 109.114 162.466 105.727C160.148 102.318 158.932 98.1023 158.818 93.0796H173.102C173.262 95.4205 173.932 97.3751 175.114 98.9432C176.318 100.489 177.921 101.659 179.921 102.455C181.943 103.227 184.227 103.614 186.773 103.614C189.273 103.614 191.443 103.25 193.284 102.523C195.148 101.796 196.591 100.784 197.614 99.4887C198.637 98.1932 199.148 96.7046 199.148 95.0228C199.148 93.4546 198.682 92.1364 197.75 91.0682C196.841 90.0001 195.5 89.091 193.727 88.341C191.977 87.591 189.83 86.9091 187.284 86.2955L179.682 84.3864C173.796 82.9546 169.148 80.716 165.739 77.6705C162.33 74.625 160.637 70.5228 160.659 65.3637C160.637 61.1364 161.762 57.4432 164.034 54.2841C166.33 51.125 169.477 48.6591 173.477 46.8864C177.477 45.1137 182.023 44.2273 187.114 44.2273C192.296 44.2273 196.818 45.1137 200.682 46.8864C204.568 48.6591 207.591 51.125 209.75 54.2841C211.909 57.4432 213.023 61.1023 213.091 65.2614H198.943Z" fill="#54A2EB"/>
<path d="M481.409 126.818V68.6365H485.136V126.818H481.409ZM491.295 87.841C491.114 86.0077 490.333 84.5834 488.955 83.5683C487.576 82.5531 485.705 82.0456 483.341 82.0456C481.735 82.0456 480.379 82.2728 479.273 82.7274C478.167 83.1668 477.318 83.7804 476.727 84.5683C476.151 85.3562 475.864 86.2501 475.864 87.2501C475.833 88.0834 476.008 88.8107 476.386 89.4319C476.78 90.0531 477.318 90.591 478 91.0456C478.682 91.485 479.47 91.8713 480.364 92.2047C481.258 92.5228 482.212 92.7956 483.227 93.0228L487.409 94.0228C489.439 94.4774 491.303 95.0834 493 95.841C494.697 96.5986 496.167 97.5304 497.409 98.6365C498.651 99.7425 499.614 101.046 500.295 102.546C500.992 104.046 501.348 105.765 501.364 107.705C501.348 110.553 500.621 113.023 499.182 115.114C497.758 117.19 495.697 118.803 493 119.955C490.318 121.091 487.083 121.659 483.295 121.659C479.538 121.659 476.265 121.083 473.477 119.932C470.705 118.78 468.538 117.076 466.977 114.818C465.432 112.546 464.621 109.735 464.545 106.386H474.068C474.174 107.947 474.621 109.25 475.409 110.296C476.212 111.326 477.28 112.106 478.614 112.636C479.962 113.152 481.485 113.409 483.182 113.409C484.848 113.409 486.295 113.167 487.523 112.682C488.765 112.197 489.727 111.523 490.409 110.659C491.091 109.796 491.432 108.803 491.432 107.682C491.432 106.636 491.121 105.758 490.5 105.046C489.894 104.333 489 103.727 487.818 103.227C486.651 102.727 485.22 102.273 483.523 101.864L478.455 100.591C474.53 99.6365 471.432 98.1441 469.159 96.1138C466.886 94.0834 465.758 91.3486 465.773 87.9092C465.758 85.091 466.508 82.6289 468.023 80.5228C469.553 78.4168 471.651 76.7728 474.318 75.591C476.985 74.4092 480.015 73.8183 483.409 73.8183C486.864 73.8183 489.879 74.4092 492.455 75.591C495.045 76.7728 497.061 78.4168 498.5 80.5228C499.939 82.6289 500.682 85.0683 500.727 87.841H491.295Z" fill="#54A2EB"/>
<path d="M339.409 89.8183V31.6365H343.136V89.8183H339.409ZM349.295 50.841C349.114 49.0077 348.333 47.5834 346.955 46.5683C345.576 45.5531 343.705 45.0456 341.341 45.0456C339.735 45.0456 338.379 45.2728 337.273 45.7274C336.167 46.1668 335.318 46.7804 334.727 47.5683C334.151 48.3562 333.864 49.2501 333.864 50.2501C333.833 51.0834 334.008 51.8107 334.386 52.4319C334.78 53.0531 335.318 53.591 336 54.0456C336.682 54.485 337.47 54.8713 338.364 55.2047C339.258 55.5228 340.212 55.7956 341.227 56.0228L345.409 57.0228C347.439 57.4774 349.303 58.0834 351 58.841C352.697 59.5986 354.167 60.5304 355.409 61.6365C356.651 62.7425 357.614 64.0456 358.295 65.5456C358.992 67.0456 359.348 68.7653 359.364 70.7047C359.348 73.5531 358.621 76.0228 357.182 78.1138C355.758 80.1895 353.697 81.8031 351 82.9547C348.318 84.091 345.083 84.6592 341.295 84.6592C337.538 84.6592 334.265 84.0834 331.477 82.9319C328.705 81.7804 326.538 80.0759 324.977 77.8183C323.432 75.5456 322.621 72.735 322.545 69.3865H332.068C332.174 70.9471 332.621 72.2501 333.409 73.2956C334.212 74.3259 335.28 75.1062 336.614 75.6365C337.962 76.1516 339.485 76.4092 341.182 76.4092C342.848 76.4092 344.295 76.1668 345.523 75.6819C346.765 75.1971 347.727 74.5228 348.409 73.6592C349.091 72.7956 349.432 71.8031 349.432 70.6819C349.432 69.6365 349.121 68.7577 348.5 68.0456C347.894 67.3334 347 66.7274 345.818 66.2274C344.651 65.7274 343.22 65.2728 341.523 64.8638L336.455 63.591C332.53 62.6365 329.432 61.1441 327.159 59.1138C324.886 57.0834 323.758 54.3486 323.773 50.9092C323.758 48.091 324.508 45.6289 326.023 43.5228C327.553 41.4168 329.651 39.7728 332.318 38.591C334.985 37.4092 338.015 36.8183 341.409 36.8183C344.864 36.8183 347.879 37.4092 350.455 38.591C353.045 39.7728 355.061 41.4168 356.5 43.5228C357.939 45.6289 358.682 48.0683 358.727 50.841H349.295Z" fill="#54A2EB"/>
</svg>
