<svg width="553" height="474" viewBox="0 0 553 474" fill="none" xmlns="http://www.w3.org/2000/svg">
<mask id="mask0_858_768" style="mask-type:alpha" maskUnits="userSpaceOnUse" x="0" y="0" width="553" height="474">
<rect width="553" height="474" rx="15" fill="white"/>
</mask>
<g mask="url(#mask0_858_768)">
<rect width="553" height="474" rx="15" fill="#CEECF2"/>
<rect x="17" y="334" width="160" height="140" fill="#80C7F2"/>
<rect x="196" y="200" width="160" height="274" fill="#80C7F2"/>
<rect x="375" y="279" width="160" height="195" fill="#80C7F2"/>
<path d="M354.317 98.5378C354.317 141.634 319.381 176.57 276.285 176.57C233.189 176.57 198.253 141.634 198.253 98.5378C198.253 55.4418 233.189 20.5056 276.285 20.5056C319.381 20.5056 354.317 55.4418 354.317 98.5378Z" fill="white"/>
<path fill-rule="evenodd" clip-rule="evenodd" d="M276.285 165.342C313.18 165.342 343.09 135.433 343.09 98.5378C343.09 61.6427 313.18 31.7333 276.285 31.7333C239.39 31.7333 209.481 61.6427 209.481 98.5378C209.481 135.433 239.39 165.342 276.285 165.342ZM276.285 176.57C319.381 176.57 354.317 141.634 354.317 98.5378C354.317 55.4418 319.381 20.5056 276.285 20.5056C233.189 20.5056 198.253 55.4418 198.253 98.5378C198.253 141.634 233.189 176.57 276.285 176.57Z" fill="#80C7F2"/>
<path d="M252.222 138.396V60.0065H283.149C289.095 60.0065 294.16 61.142 298.345 63.4131C302.53 65.6586 305.719 68.7845 307.914 72.7907C310.134 76.7714 311.244 81.3645 311.244 86.5701C311.244 91.7756 310.121 96.3688 307.876 100.349C305.63 104.33 302.377 107.431 298.115 109.651C293.879 111.871 288.75 112.981 282.728 112.981H263.016V99.6988H280.049C283.239 99.6988 285.867 99.1502 287.934 98.0529C290.026 96.9301 291.583 95.3863 292.603 93.4215C293.65 91.4311 294.173 89.1473 294.173 86.5701C294.173 83.9673 293.65 81.6963 292.603 79.7569C291.583 77.7921 290.026 76.2738 287.934 75.2021C285.841 74.1048 283.188 73.5562 279.972 73.5562H268.796V138.396H252.222Z" fill="black"/>
<path fill-rule="evenodd" clip-rule="evenodd" d="M334.729 48.0328L225.821 158.064L217.841 150.165L326.75 40.1345L334.729 48.0328Z" fill="#80C7F2"/>
<path d="M169.836 236.918C169.836 278.846 135.846 312.836 93.918 312.836C51.9896 312.836 18 278.846 18 236.918C18 194.99 51.9896 161 93.918 161C135.846 161 169.836 194.99 169.836 236.918Z" fill="#80C7F2"/>
<path fill-rule="evenodd" clip-rule="evenodd" d="M93.918 301.912C129.813 301.912 158.912 272.813 158.912 236.918C158.912 201.022 129.813 171.923 93.918 171.923C58.0225 171.923 28.9234 201.022 28.9234 236.918C28.9234 272.813 58.0225 301.912 93.918 301.912ZM93.918 312.836C135.846 312.836 169.836 278.846 169.836 236.918C169.836 194.99 135.846 161 93.918 161C51.9896 161 18 194.99 18 236.918C18 278.846 51.9896 312.836 93.918 312.836Z" fill="white"/>
<path fill-rule="evenodd" clip-rule="evenodd" d="M137.065 247.295H49.6777V227.633H137.065V247.295Z" fill="white"/>
<path d="M449.818 256L384 142L515.636 142L449.818 256Z" fill="white"/>
<path fill-rule="evenodd" clip-rule="evenodd" d="M449.818 256L515.636 142L384 142L449.818 256ZM449.818 236.759L498.973 151.62L400.663 151.62L449.818 236.759Z" fill="#80C7F2"/>
</g>
</svg>
