<svg width="553" height="474" viewBox="0 0 553 474" fill="none" xmlns="http://www.w3.org/2000/svg">
<rect width="553" height="474" rx="15" fill="#80C7F2"/>
<path d="M526 368.13H482.54C461.95 368.13 442.01 375.4 426.25 388.65C417 396.43 405.3 400.69 393.21 400.69H349.99C315.82 400.69 282.04 407.94 250.88 421.97V442.56H553V368.14L526 368.13Z" fill="#336EB5"/>
<path d="M399.43 442.56L377.93 430.42C342.65 410.5 302.83 400.03 262.32 400.03H243.12C200.98 400.03 159.35 390.78 121.17 372.95C100.9 363.48 78.8 358.57 56.42 358.57H0V442.57H399.43V442.56Z" fill="#1F4888"/>
<path d="M137.899 108.582C150.593 105.553 158.428 92.8071 155.4 80.113C152.371 67.4189 139.625 59.5836 126.931 62.6125C114.236 65.6413 106.401 78.3873 109.43 91.0815C112.459 103.776 125.205 111.611 137.899 108.582Z" fill="#CEECF2"/>
<path d="M526 378.91C502.78 383.22 481.02 390.44 462.19 400.28C443.31 410.15 419.43 415.56 394.77 415.56H306.55C236.81 415.56 167.86 424.76 104.26 442.56H553V378.92L526 378.91Z" fill="#2A589B"/>
<path d="M156.04 200.31H148.47V432.4H156.04V200.31Z" fill="#044BD9"/>
<path d="M237.35 285.22L232 290.61L149.71 207.67L155.06 202.28L237.35 285.22Z" fill="#044BD9"/>
<path d="M239.08 200.31H231.51V432.4H239.08V200.31Z" fill="#044BD9"/>
<path d="M149.71 285.22L155.06 290.61L237.35 207.67L232 202.28L149.71 285.22Z" fill="#044BD9"/>
<path d="M152.25 289.18V296.81H235.29V289.18H152.25Z" fill="#044BD9"/>
<path d="M237.35 377.99L232 383.39L149.71 300.45L155.06 295.05L237.35 377.99Z" fill="#044BD9"/>
<path d="M149.71 377.99L155.06 383.39L237.35 300.45L232 295.05L149.71 377.99Z" fill="#044BD9"/>
<path d="M152.25 381.05V388.68H235.29V381.05H152.25Z" fill="#044BD9"/>
<path d="M242.47 207.52V199.89H144.6V207.52H242.47Z" fill="#044BD9"/>
<path d="M242.47 189.34H145.08V191.98H242.47V189.34Z" fill="#1F4888"/>
<path d="M236.6 189.34H233.98V200.31H236.6V189.34Z" fill="#1F4888"/>
<path d="M153.56 189.34H150.94V200.31H153.56V189.34Z" fill="#1F4888"/>
<path d="M181.24 189.34H178.62V200.31H181.24V189.34Z" fill="#1F4888"/>
<path d="M208.92 189.34H206.3V200.31H208.92V189.34Z" fill="#1F4888"/>
<path opacity="0.2" d="M333.42 349.36H279.38V432.4H333.42V349.36Z" fill="url(#paint0_linear_871_751)"/>
<path opacity="0.2" d="M342.74 340.76H270.09V432.4H342.74V340.76Z" fill="url(#paint1_linear_871_751)"/>
<path opacity="0.2" d="M354.72 406.22C346.56 406.22 339.33 413.52 334.82 424.77C328.54 403.66 317.36 389.61 304.62 389.61C291.88 389.61 280.88 403.44 274.57 424.27C271.01 418.19 265.95 414.39 260.34 414.39C252.53 414.39 245.79 421.76 242.66 432.41H377.1C373.14 416.93 364.61 406.22 354.73 406.22H354.72Z" fill="url(#paint2_linear_871_751)"/>
<path opacity="0.2" d="M393.27 411.26C388.17 411.26 383.7 415.3 381.22 421.36C379.4 420.34 377.3 419.76 375.06 419.76C368.07 419.76 362.41 425.42 362.41 432.41H407.41C407.41 420.73 401.08 411.26 393.27 411.26Z" fill="url(#paint3_linear_871_751)"/>
<path opacity="0.2" d="M243.73 423.42C242.86 423.42 242.03 423.55 241.23 423.78C239.02 416.4 234.08 411.25 228.33 411.25C223.23 411.25 218.76 415.29 216.28 421.35C214.46 420.33 212.36 419.75 210.12 419.75C203.13 419.75 197.47 425.41 197.47 432.4H252.71C252.71 427.44 248.69 423.42 243.73 423.42Z" fill="url(#paint4_linear_871_751)"/>
<path d="M447.74 432.4H104.26V442.63H447.74V432.4Z" fill="#044BD9"/>
<path d="M553 443H0V474H553V443Z" fill="#0F3A7A"/>
<g opacity="0.3">
<path d="M473.52 258.1C467.72 258.1 462.53 261.73 459.05 267.44H487.99C484.51 261.73 479.32 258.1 473.52 258.1Z" fill="white"/>
<path d="M421.19 249.71C412.42 249.71 404.36 253.72 397.97 260.42C393.98 258.94 389.57 258.11 384.92 258.11C375.16 258.11 366.42 261.74 360.56 267.45H449.9C443 256.61 432.7 249.72 421.19 249.72V249.71Z" fill="white"/>
</g>
<g opacity="0.3">
<path d="M179.64 102.16C173.84 102.16 168.65 105.79 165.17 111.5H194.11C190.63 105.79 185.44 102.16 179.64 102.16Z" fill="white"/>
<path d="M103.52 93.7598C111.11 93.7598 118.09 97.7698 123.63 104.47C127.08 102.99 130.9 102.16 134.93 102.16C143.38 102.16 150.95 105.79 156.02 111.5H78.6699C84.6499 100.66 93.5599 93.7698 103.52 93.7698V93.7598Z" fill="white"/>
</g>
<g opacity="0.3">
<path d="M164.16 277.59C158.53 271.44 150.14 267.54 140.75 267.54C131.36 267.54 122.97 271.45 117.34 277.59H164.16Z" fill="white"/>
</g>
<path opacity="0.3" d="M91.34 237.98H0V216.72C3.88 213.77 8.03 212.17 12.34 212.17C21.01 212.17 29.02 218.63 35.54 229.56C39.82 227.15 44.54 225.77 49.52 225.77C57.94 225.77 65.63 229.62 71.61 235.95C74.15 233.29 77.25 231.7 80.62 231.7C84.79 231.7 88.56 234.1 91.34 237.98Z" fill="white"/>
<path opacity="0.3" d="M552.59 112.81V140.01H434C437.59 134.99 442.47 131.88 447.86 131.88C452.22 131.88 456.22 133.93 459.5 137.36C467.25 129.17 477.21 124.21 488.1 124.21C494.56 124.21 500.68 125.96 506.21 129.07C514.65 114.96 525 106.6 536.22 106.6C541.95 106.6 547.45 108.79 552.59 112.81Z" fill="white"/>
<path d="M286.36 349.14H272.46C271.15 349.14 270.09 348.08 270.09 346.77V273.35C270.09 259.24 272.42 245.23 276.99 231.88C277.78 229.57 281.05 229.57 281.84 231.88C286.41 245.23 288.74 259.24 288.74 273.35V346.77C288.74 348.08 287.68 349.14 286.37 349.14H286.36Z" fill="#2C80D6"/>
<path d="M275.95 336.53C275.95 336.09 276.31 335.73 276.75 335.73H282.07C282.51 335.73 282.87 336.09 282.87 336.53C282.87 336.97 282.51 337.33 282.07 337.33H276.75C276.31 337.33 275.95 336.97 275.95 336.53Z" fill="#1F4888"/>
<path d="M275.95 339.45C275.95 339.01 276.31 338.65 276.75 338.65H282.07C282.51 338.65 282.87 339.01 282.87 339.45C282.87 339.89 282.51 340.25 282.07 340.25H276.75C276.31 340.25 275.95 339.89 275.95 339.45Z" fill="#1F4888"/>
<path d="M275.95 342.37C275.95 341.93 276.31 341.57 276.75 341.57H282.07C282.51 341.57 282.87 341.93 282.87 342.37C282.87 342.81 282.51 343.17 282.07 343.17H276.75C276.31 343.17 275.95 342.81 275.95 342.37Z" fill="#1F4888"/>
<path d="M288.74 323.35H270.09V326.12H288.74V323.35Z" fill="#1A4D80"/>
<path d="M288.74 315.04H270.09V317.81H288.74V315.04Z" fill="#1A4D80"/>
<path opacity="0.2" d="M272.11 296.48V329.7C272.11 332.17 275.95 332.18 275.95 329.7V296.48C275.95 294.01 272.11 294 272.11 296.48Z" fill="white"/>
<path opacity="0.2" d="M272.11 280.07V286.87C272.11 289.34 275.95 289.35 275.95 286.87V280.07C275.95 277.6 272.11 277.59 272.11 280.07Z" fill="white"/>
<path d="M326.47 349.14H340.37C341.68 349.14 342.74 348.08 342.74 346.77V273.35C342.74 259.24 340.41 245.23 335.84 231.88C335.05 229.57 331.78 229.57 330.99 231.88C326.42 245.23 324.09 259.24 324.09 273.35V346.77C324.09 348.08 325.15 349.14 326.46 349.14H326.47Z" fill="#2C80D6"/>
<path d="M336.88 336.53C336.88 336.09 336.52 335.73 336.08 335.73H330.76C330.32 335.73 329.96 336.09 329.96 336.53C329.96 336.97 330.32 337.33 330.76 337.33H336.08C336.52 337.33 336.88 336.97 336.88 336.53Z" fill="#1F4888"/>
<path d="M336.88 339.45C336.88 339.01 336.52 338.65 336.08 338.65H330.76C330.32 338.65 329.96 339.01 329.96 339.45C329.96 339.89 330.32 340.25 330.76 340.25H336.08C336.52 340.25 336.88 339.89 336.88 339.45Z" fill="#1F4888"/>
<path d="M336.88 342.37C336.88 341.93 336.52 341.57 336.08 341.57H330.76C330.32 341.57 329.96 341.93 329.96 342.37C329.96 342.81 330.32 343.17 330.76 343.17H336.08C336.52 343.17 336.88 342.81 336.88 342.37Z" fill="#1F4888"/>
<path d="M324.09 326.12H342.74V323.35H324.09V326.12Z" fill="#1A4D80"/>
<path d="M324.09 317.82H342.74V315.05H324.09V317.82Z" fill="#1A4D80"/>
<path opacity="0.2" d="M340.72 296.48V329.7C340.72 332.17 336.88 332.18 336.88 329.7V296.48C336.88 294.01 340.72 294 340.72 296.48Z" fill="white"/>
<path opacity="0.2" d="M340.72 280.07V286.87C340.72 289.34 336.88 289.35 336.88 286.87V280.07C336.88 277.6 340.72 277.59 340.72 280.07Z" fill="white"/>
<path d="M333.42 349.14H279.41V156.48C279.41 126.35 282.77 96.3099 289.42 66.9299H323.42V66.9499C330.07 96.3199 333.42 126.35 333.42 156.46V349.15V349.14Z" fill="#FAFEFE"/>
<path d="M281.709 352.25H304.119C304.119 353.27 303.289 354.1 302.269 354.1H283.559C282.539 354.1 281.709 353.27 281.709 352.25Z" fill="#2E282D"/>
<path d="M302.779 352.79H283.059C281.049 352.79 279.419 351.16 279.419 349.15H306.419C306.419 351.16 304.789 352.79 302.779 352.79Z" fill="#1F4888"/>
<path d="M308.72 352.25H331.13C331.13 353.27 330.3 354.1 329.28 354.1H310.57C309.55 354.1 308.72 353.27 308.72 352.25Z" fill="#2E282D"/>
<path d="M329.78 352.79H310.06C308.05 352.79 306.42 351.16 306.42 349.15H333.42C333.42 351.16 331.79 352.79 329.78 352.79Z" fill="#1F4888"/>
<path d="M323.42 66.92H289.42C289.77 65.22 290.12 63.57 290.48 61.97C290.75 60.77 291.02 59.61 291.29 58.47C295.93 38.85 301.05 28 306.42 28C311.79 28 316.91 38.85 321.55 58.47C321.82 59.61 322.09 60.77 322.36 61.97C322.72 63.57 323.07 65.22 323.42 66.92Z" fill="#1F4888"/>
<path d="M322.359 61.97H290.479C290.749 60.77 291.019 59.61 291.289 58.47H321.549C321.819 59.61 322.089 60.77 322.359 61.97Z" fill="#FAFEFE"/>
<path d="M311.649 110.89H301.179C299.506 110.89 298.149 112.247 298.149 113.92V168.57C298.149 170.244 299.506 171.6 301.179 171.6H311.649C313.323 171.6 314.679 170.244 314.679 168.57V113.92C314.679 112.247 313.323 110.89 311.649 110.89Z" fill="#2383CD"/>
<path opacity="0.1" d="M311.649 110.89H301.189C299.519 110.89 298.159 112.25 298.159 113.92V148.47L314.689 138.14V113.92C314.689 112.25 313.329 110.89 311.659 110.89H311.649Z" fill="white"/>
<path opacity="0.1" d="M298.149 158.57L314.679 148.47V158.57L298.149 167.81V158.57Z" fill="white"/>
<path opacity="0.1" d="M323.74 176.31V187C323.74 190.88 329.78 190.89 329.78 187V176.31C329.78 172.43 323.74 172.42 323.74 176.31Z" fill="#383838"/>
<path d="M313.37 349.14H299.47C298.16 349.14 297.1 348.08 297.1 346.77V273.35C297.1 259.24 299.43 245.23 304 231.88C304.79 229.57 308.06 229.57 308.85 231.88C313.42 245.23 315.75 259.24 315.75 273.35V346.77C315.75 348.08 314.69 349.14 313.38 349.14H313.37Z" fill="#2C80D6"/>
<path d="M302.95 336.53C302.95 336.09 303.31 335.73 303.75 335.73H309.07C309.51 335.73 309.87 336.09 309.87 336.53C309.87 336.97 309.51 337.33 309.07 337.33H303.75C303.31 337.33 302.95 336.97 302.95 336.53Z" fill="#1F4888"/>
<path d="M302.95 339.45C302.95 339.01 303.31 338.65 303.75 338.65H309.07C309.51 338.65 309.87 339.01 309.87 339.45C309.87 339.89 309.51 340.25 309.07 340.25H303.75C303.31 340.25 302.95 339.89 302.95 339.45Z" fill="#1F4888"/>
<path d="M302.95 342.37C302.95 341.93 303.31 341.57 303.75 341.57H309.07C309.51 341.57 309.87 341.93 309.87 342.37C309.87 342.81 309.51 343.17 309.07 343.17H303.75C303.31 343.17 302.95 342.81 302.95 342.37Z" fill="#1F4888"/>
<path d="M315.74 323.35H297.09V326.12H315.74V323.35Z" fill="#1A4D80"/>
<path d="M315.74 315.04H297.09V317.81H315.74V315.04Z" fill="#1A4D80"/>
<path opacity="0.2" d="M299.11 296.48V329.7C299.11 332.17 302.95 332.18 302.95 329.7V296.48C302.95 294.01 299.11 294 299.11 296.48Z" fill="white"/>
<path opacity="0.2" d="M299.11 280.07V286.87C299.11 289.34 302.95 289.35 302.95 286.87V280.07C302.95 277.6 299.11 277.59 299.11 280.07Z" fill="white"/>
<path opacity="0.1" d="M323.74 202.09V254.3C323.74 258.18 329.78 258.19 329.78 254.3V202.09C329.78 198.21 323.74 198.2 323.74 202.09Z" fill="#383838"/>
<defs>
<linearGradient id="paint0_linear_871_751" x1="306.4" y1="432.4" x2="306.4" y2="349.98" gradientUnits="userSpaceOnUse">
<stop offset="0.06" stop-color="white" stop-opacity="0"/>
<stop offset="0.16" stop-color="white" stop-opacity="0.02"/>
<stop offset="0.28" stop-color="white" stop-opacity="0.08"/>
<stop offset="0.41" stop-color="white" stop-opacity="0.17"/>
<stop offset="0.55" stop-color="white" stop-opacity="0.31"/>
<stop offset="0.69" stop-color="white" stop-opacity="0.47"/>
<stop offset="0.71" stop-color="white" stop-opacity="0.5"/>
<stop offset="0.72" stop-color="white" stop-opacity="0.52"/>
<stop offset="0.85" stop-color="white" stop-opacity="0.78"/>
<stop offset="0.95" stop-color="white" stop-opacity="0.94"/>
<stop offset="1" stop-color="white"/>
</linearGradient>
<linearGradient id="paint1_linear_871_751" x1="306.42" y1="-10.9602" x2="306.42" y2="341.44" gradientUnits="userSpaceOnUse">
<stop offset="0.06" stop-color="white" stop-opacity="0"/>
<stop offset="0.16" stop-color="white" stop-opacity="0.02"/>
<stop offset="0.28" stop-color="white" stop-opacity="0.08"/>
<stop offset="0.41" stop-color="white" stop-opacity="0.17"/>
<stop offset="0.55" stop-color="white" stop-opacity="0.31"/>
<stop offset="0.69" stop-color="white" stop-opacity="0.47"/>
<stop offset="0.71" stop-color="white" stop-opacity="0.5"/>
<stop offset="0.72" stop-color="white" stop-opacity="0.52"/>
<stop offset="0.85" stop-color="white" stop-opacity="0.78"/>
<stop offset="0.95" stop-color="white" stop-opacity="0.94"/>
<stop offset="1" stop-color="white"/>
</linearGradient>
<linearGradient id="paint2_linear_871_751" x1="309.88" y1="389.38" x2="309.88" y2="431.54" gradientUnits="userSpaceOnUse">
<stop offset="0.06" stop-color="white" stop-opacity="0"/>
<stop offset="0.2" stop-color="white" stop-opacity="0.16"/>
<stop offset="0.35" stop-color="white" stop-opacity="0.31"/>
<stop offset="0.49" stop-color="white" stop-opacity="0.41"/>
<stop offset="0.61" stop-color="white" stop-opacity="0.48"/>
<stop offset="0.71" stop-color="white" stop-opacity="0.5"/>
<stop offset="0.72" stop-color="white" stop-opacity="0.52"/>
<stop offset="0.85" stop-color="white" stop-opacity="0.78"/>
<stop offset="0.95" stop-color="white" stop-opacity="0.94"/>
<stop offset="1" stop-color="white"/>
</linearGradient>
<linearGradient id="paint3_linear_871_751" x1="384.91" y1="409.72" x2="384.91" y2="432.73" gradientUnits="userSpaceOnUse">
<stop offset="0.06" stop-color="white" stop-opacity="0"/>
<stop offset="0.2" stop-color="white" stop-opacity="0.16"/>
<stop offset="0.35" stop-color="white" stop-opacity="0.31"/>
<stop offset="0.49" stop-color="white" stop-opacity="0.41"/>
<stop offset="0.61" stop-color="white" stop-opacity="0.48"/>
<stop offset="0.71" stop-color="white" stop-opacity="0.5"/>
<stop offset="0.72" stop-color="white" stop-opacity="0.52"/>
<stop offset="0.85" stop-color="white" stop-opacity="0.78"/>
<stop offset="0.95" stop-color="white" stop-opacity="0.94"/>
<stop offset="1" stop-color="white"/>
</linearGradient>
<linearGradient id="paint4_linear_871_751" x1="225.08" y1="411.05" x2="225.08" y2="433.07" gradientUnits="userSpaceOnUse">
<stop offset="0.06" stop-color="white" stop-opacity="0"/>
<stop offset="0.2" stop-color="white" stop-opacity="0.16"/>
<stop offset="0.35" stop-color="white" stop-opacity="0.31"/>
<stop offset="0.49" stop-color="white" stop-opacity="0.41"/>
<stop offset="0.61" stop-color="white" stop-opacity="0.48"/>
<stop offset="0.71" stop-color="white" stop-opacity="0.5"/>
<stop offset="0.72" stop-color="white" stop-opacity="0.52"/>
<stop offset="0.85" stop-color="white" stop-opacity="0.78"/>
<stop offset="0.95" stop-color="white" stop-opacity="0.94"/>
<stop offset="1" stop-color="white"/>
</linearGradient>
</defs>
</svg>
